<?xml version="1.0" standalone="no"?>
<!DOCTYPE svg PUBLIC "-//W3C//DTD SVG 20010904//EN"
 "http://www.w3.org/TR/2001/REC-SVG-20010904/DTD/svg10.dtd">
<svg version="1.0" xmlns="http://www.w3.org/2000/svg"
 width="1024.000000pt" height="1024.000000pt" viewBox="0 0 1024.000000 1024.000000"
 preserveAspectRatio="xMidYMid meet">
<metadata>
Created by potrace 1.16, written by Peter Selinger 2001-2019
</metadata>
<g transform="translate(0.000000,1024.000000) scale(0.100000,-0.100000)"
fill="#000000" stroke="none">
<path d="M3635 9865 c-51 -18 -91 -62 -106 -117 -13 -46 -13 -46 146 -977 30
-178 53 -326 51 -328 -2 -2 -124 -75 -272 -161 -502 -295 -859 -510 -933 -562
-230 -163 -376 -372 -411 -593 -17 -104 -8 -289 19 -392 67 -253 248 -473 486
-590 184 -90 353 -121 607 -112 172 6 255 21 395 72 l73 26 332 -31 c182 -16
334 -32 337 -35 7 -8 -42 -157 -54 -161 -5 -2 -507 -5 -1115 -6 l-1105 -3 -48
-23 c-56 -28 -100 -78 -124 -141 -14 -39 -18 -92 -21 -347 l-3 -302 -54 -4
c-78 -7 -178 -59 -250 -132 -110 -111 -162 -249 -172 -456 -14 -303 90 -520
300 -624 41 -20 97 -39 125 -43 l50 -6 4 -166 c3 -157 5 -169 30 -216 33 -62
80 -108 138 -134 45 -20 58 -21 1537 -21 1042 0 1507 3 1543 11 68 15 129 62
161 126 l27 52 -2 1113 c-1 1112 -1 1113 -22 1159 -27 57 -84 115 -138 140
-37 17 -70 19 -340 19 -279 0 -298 1 -293 18 3 9 14 40 24 68 l18 51 115 6
c392 19 781 293 986 695 66 128 55 196 -35 223 -46 14 -88 -2 -108 -41 -6 -14
-29 -60 -49 -102 -165 -343 -564 -583 -918 -553 -118 10 -374 34 -488 46
l-106 11 47 62 c27 33 53 71 60 83 20 38 13 80 -18 115 -24 27 -36 33 -71 33
-46 0 -48 -3 -142 -122 -92 -119 -232 -199 -418 -240 -67 -14 -125 -18 -270
-17 -165 1 -195 4 -282 27 -235 62 -401 191 -493 382 -59 122 -78 199 -78 320
-1 125 13 185 69 302 96 200 146 236 1204 861 l204 121 26 -47 c71 -130 251
-146 491 -43 214 92 378 254 396 391 6 39 6 40 42 35 20 -3 88 -10 151 -15
131 -12 254 -31 386 -61 l92 -20 6 -57 c16 -143 18 -151 42 -175 31 -31 77
-40 117 -23 61 25 63 33 52 196 -6 82 -4 120 9 174 45 191 198 370 439 515
l37 23 20 -45 c64 -144 82 -383 42 -547 -36 -151 -46 -170 -204 -403 -44 -65
-34 -117 28 -143 52 -22 103 -5 153 53 23 25 41 51 41 57 0 15 89 -125 157
-245 197 -354 380 -947 512 -1660 17 -91 31 -171 31 -176 0 -6 -173 -9 -478
-9 l-477 1 -67 -33 c-80 -39 -138 -101 -170 -181 l-23 -56 -3 -1154 c-3 -1253
-4 -1221 52 -1309 38 -60 113 -120 171 -137 44 -13 213 -15 1276 -13 l1224 3
67 33 c73 36 114 79 151 159 l22 48 3 1170 c2 1148 2 1171 -18 1236 -24 81
-88 157 -164 197 l-51 27 -461 3 -460 3 -13 61 c-30 146 -139 345 -258 467
-40 42 -73 76 -73 76 0 0 54 0 121 0 120 0 121 0 145 28 31 37 31 91 0 188
-84 258 -258 505 -461 656 l-30 22 118 -2 119 -2 25 29 c22 26 25 36 20 78
-14 111 -141 334 -272 476 -133 143 -314 255 -493 304 -63 18 -81 26 -76 38
17 45 36 137 46 224 31 274 -89 631 -229 677 -51 16 -112 5 -195 -37 -195 -98
-359 -254 -458 -435 l-28 -52 -12 59 c-16 79 -63 190 -112 266 -153 237 -446
396 -583 316 -85 -50 -142 -172 -164 -355 -11 -88 -2 -241 15 -288 6 -13 1
-16 -21 -13 -24 2 -45 25 -122 133 -451 626 -657 903 -681 917 -41 25 -92 30
-137 13z m200 -430 c42 -60 92 -131 111 -156 l34 -47 -57 -32 c-32 -18 -67
-39 -79 -46 -20 -14 -21 -10 -53 164 -18 97 -35 191 -38 207 -7 39 -8 40 82
-90z m1096 -201 c135 -71 248 -226 289 -395 27 -112 27 -109 -17 -98 -63 14
-264 47 -334 54 l-66 7 -13 83 c-8 48 -11 118 -7 167 6 100 41 218 63 218 9 0
47 -16 85 -36z m-751 -287 c20 -28 30 -51 24 -56 -22 -20 -296 -203 -298 -200
-3 3 -43 224 -50 273 0 5 46 39 104 76 l105 67 40 -56 c23 -31 56 -77 75 -104z
m205 -289 c44 -62 80 -118 80 -125 0 -21 -137 -122 -220 -164 -86 -43 -238
-80 -255 -63 -12 12 -52 191 -48 211 3 13 335 251 353 252 6 1 47 -50 90 -111z
m3903 -2837 c55 -11 97 -51 111 -106 14 -57 16 -2224 1 -2274 -11 -40 -45 -79
-80 -93 -14 -5 -491 -9 -1211 -10 l-1187 -1 -31 22 c-65 47 -61 -32 -61 1216
0 1216 -2 1174 49 1219 12 11 41 23 64 26 62 10 2295 11 2345 1z m-5308 -391
l0 -270 -447 0 -448 0 3 247 c3 238 4 248 24 270 l22 23 423 0 423 -1 0 -269z
m1110 0 l0 -270 -455 0 -455 0 0 270 0 270 455 0 455 0 0 -270z m1019 246 c20
-18 21 -28 21 -268 l0 -248 -425 0 -425 0 0 270 0 271 404 -3 c381 -3 405 -4
425 -22z m-2128 -1036 l0 -325 -315 -2 -315 -2 -6 32 c-4 18 -13 53 -21 79
-14 42 -13 52 0 99 39 130 -4 302 -101 409 l-36 40 397 -2 397 -3 0 -325z
m1109 0 l0 -330 -455 0 -455 0 0 330 0 330 455 0 455 0 0 -330z m1042 4 c2
-179 1 -328 -1 -330 -2 -2 -195 -4 -428 -4 l-423 0 0 330 0 330 425 0 424 0 3
-326z m-3134 220 c77 -32 139 -115 148 -202 5 -38 1 -56 -20 -95 -33 -61 -33
-109 1 -183 78 -171 -43 -368 -226 -367 -135 0 -242 104 -281 273 -30 124 -11
321 40 420 70 137 218 204 338 154z m984 -1064 l3 -330 -432 0 -433 0 -14 23
c-12 17 -15 61 -16 196 l-2 173 49 33 c65 43 136 124 165 185 l23 49 327 1
327 0 3 -330z m1108 0 l0 -330 -455 0 -455 0 0 330 0 330 455 0 455 0 0 -330z
m1048 21 c-3 -287 -4 -310 -22 -330 -19 -21 -25 -21 -428 -21 l-408 0 0 330 0
330 430 0 431 0 -3 -309z"/>
<path d="M7526 5254 c-77 -19 -169 -68 -208 -113 -17 -19 -45 -65 -62 -101
-29 -60 -31 -73 -31 -175 0 -105 2 -114 33 -177 54 -109 131 -165 329 -239
118 -44 233 -107 258 -141 43 -62 -2 -169 -85 -205 -47 -20 -155 -20 -203 0
-40 17 -137 89 -175 130 l-24 25 -101 -85 c-56 -46 -104 -89 -105 -94 -2 -5
27 -41 66 -78 121 -119 263 -174 457 -175 120 0 193 16 278 62 64 34 142 119
175 189 24 52 27 70 27 168 0 103 -2 114 -32 178 -60 126 -151 193 -364 270
-125 46 -192 80 -218 113 -28 36 -29 111 -1 147 24 30 97 57 156 57 51 0 154
-31 212 -64 l42 -25 14 22 c7 12 38 64 69 114 l56 93 -29 20 c-43 31 -134 69
-204 85 -77 18 -252 18 -330 -1z"/>
<path d="M6688 4728 c-3 -515 -4 -534 -23 -568 -28 -47 -75 -72 -134 -72 -58
0 -102 21 -159 75 l-42 41 -33 -18 c-17 -10 -69 -41 -114 -69 l-82 -51 22 -30
c64 -90 170 -164 272 -189 295 -73 514 36 581 288 11 39 14 171 14 588 l0 537
-150 0 -149 0 -3 -532z"/>
<path d="M4649 7810 c-49 -9 -123 -53 -153 -93 -40 -52 -68 -126 -73 -191 -4
-52 -2 -65 17 -89 58 -73 154 -45 180 52 6 24 21 48 36 57 38 25 70 6 99 -60
28 -63 56 -86 105 -86 55 0 80 29 80 94 0 184 -144 341 -291 316z"/>
<path d="M2824 7291 c-32 -14 -72 -68 -85 -114 -14 -53 -6 -160 15 -192 20
-31 75 -46 120 -34 105 29 154 225 78 310 -29 33 -89 47 -128 30z"/>
<path d="M1553 2490 c-71 -43 -84 -144 -25 -203 39 -38 120 -49 171 -23 61 32
89 115 58 176 -33 65 -138 91 -204 50z"/>
<path d="M9204 2480 c-141 -21 -230 -79 -284 -184 -32 -63 -35 -76 -35 -155 0
-76 4 -92 30 -140 48 -86 111 -130 280 -191 178 -65 225 -99 225 -164 0 -89
-62 -140 -171 -139 -75 0 -144 27 -221 86 l-46 35 -71 -80 c-39 -45 -71 -86
-71 -92 0 -17 77 -74 145 -106 68 -32 190 -60 263 -60 263 0 437 164 419 395
-12 160 -93 243 -317 320 -174 61 -210 86 -212 148 -4 122 172 156 335 64 l44
-24 66 89 66 89 -46 30 c-65 41 -144 68 -227 79 -80 11 -100 11 -172 0z"/>
<path d="M520 2360 l0 -110 160 0 160 0 0 -470 0 -470 125 0 125 0 0 470 0
470 155 0 155 0 0 110 0 110 -440 0 -440 0 0 -110z"/>
<path d="M3640 1890 l0 -580 120 0 120 0 0 230 0 230 185 0 185 0 0 111 0 111
-185 -3 -186 -4 3 130 3 130 205 2 205 2 3 110 3 111 -331 0 -330 0 0 -580z"/>
<path d="M8468 2043 c-3 -452 -3 -447 -51 -500 -41 -45 -119 -39 -167 12 l-22
23 -75 -81 -75 -82 39 -34 c63 -56 137 -84 230 -89 139 -7 241 39 311 142 60
90 62 108 66 594 l4 442 -129 0 -128 0 -3 -427z"/>
<path d="M2305 2171 c-48 -12 -97 -41 -137 -79 l-38 -36 0 52 0 52 -110 0
-110 0 0 -425 0 -425 115 0 115 0 0 265 c0 292 3 311 59 358 27 22 42 27 90
27 68 0 96 -17 122 -74 17 -37 19 -69 19 -308 l0 -268 120 0 120 0 0 258 c0
141 -5 286 -11 322 -12 75 -44 151 -83 197 -53 63 -189 106 -271 84z"/>
<path d="M4748 2171 c-45 -15 -89 -51 -119 -99 l-29 -46 0 68 0 67 -105 -2
-105 -1 0 -424 0 -424 115 0 115 0 0 228 c0 237 6 289 37 331 40 53 69 66 147
66 l73 0 25 110 c21 95 23 111 10 119 -21 12 -132 17 -164 7z"/>
<path d="M5214 2166 c-81 -19 -134 -47 -190 -101 -52 -49 -53 -45 19 -124 l38
-42 32 25 c49 37 111 56 184 56 61 0 67 -2 99 -34 23 -23 35 -44 36 -65 0 -17
1 -35 2 -41 1 -6 -48 -12 -116 -15 -258 -10 -365 -76 -384 -238 -15 -126 61
-247 175 -281 105 -31 225 -13 298 44 l28 22 8 -32 8 -31 107 3 107 3 0 295
c0 256 -2 303 -18 353 -48 156 -241 246 -433 203z m216 -531 c0 -81 -51 -144
-124 -152 -91 -11 -136 20 -136 90 0 73 40 95 173 96 l87 1 0 -35z"/>
<path d="M6185 2165 c-22 -9 -59 -34 -82 -57 l-43 -42 0 47 0 47 -110 0 -110
0 0 -425 0 -425 115 0 115 0 0 248 c0 149 4 263 11 287 6 22 28 56 49 77 34
34 43 38 88 38 40 0 57 -6 81 -26 55 -46 56 -49 61 -344 l5 -275 118 -3 117
-3 0 268 c0 242 2 272 19 303 53 100 191 109 247 16 17 -28 19 -58 22 -308 l3
-278 115 0 114 0 0 308 c0 353 -4 380 -71 456 -23 26 -65 59 -93 74 -43 22
-64 26 -136 27 -76 0 -92 -3 -150 -32 -36 -17 -80 -48 -99 -67 l-34 -35 -44
45 c-24 25 -65 55 -91 66 -60 27 -163 33 -217 13z"/>
<path d="M7570 2169 c-161 -27 -295 -156 -329 -317 -26 -123 -7 -279 44 -366
128 -218 478 -264 667 -88 l27 25 -51 73 c-52 74 -52 74 -72 55 -41 -39 -107
-61 -184 -61 -82 0 -116 13 -155 60 -22 26 -47 85 -47 113 0 4 122 7 270 7
l270 0 0 103 c0 149 -23 218 -99 300 -47 50 -113 84 -192 97 -72 11 -73 11
-149 -1z m155 -203 c37 -16 75 -68 75 -103 0 -23 -1 -23 -161 -23 l-161 0 7
28 c17 71 73 112 153 112 29 0 68 -6 87 -14z"/>
<path d="M1520 1735 l0 -425 115 0 115 0 0 425 0 425 -115 0 -115 0 0 -425z"/>
<path d="M2685 2138 c4 -13 77 -196 161 -407 85 -211 154 -392 154 -401 0 -10
-18 -54 -40 -98 -49 -98 -85 -125 -157 -121 l-48 3 -12 -99 c-10 -79 -10 -101
0 -107 6 -5 53 -7 102 -6 77 3 98 8 143 33 66 36 122 96 161 174 31 61 391
1019 391 1040 0 8 -34 11 -117 9 l-118 -3 -43 -125 c-24 -69 -61 -188 -83
-265 -22 -77 -43 -147 -46 -155 -3 -8 -20 30 -39 85 -18 55 -64 181 -101 280
l-68 180 -123 3 -124 3 7 -23z"/>
</g>
</svg>
